<svg xmlns="http://www.w3.org/2000/svg" viewBox="0 0 400 400">
  <rect width="400" height="400" rx="80" fill="#0284c7" />
  <g transform="translate(60, 60) scale(11.6)">
    <path fill="none" stroke="#ffffff" stroke-width="2" stroke-linecap="round" stroke-linejoin="round" d="m2 22 1-1h3l9-9"/>
    <path fill="none" stroke="#ffffff" stroke-width="2" stroke-linecap="round" stroke-linejoin="round" d="M3 21v-3l9-9"/>
    <path fill="none" stroke="#ffffff" stroke-width="2" stroke-linecap="round" stroke-linejoin="round" d="m15 6 3.429 3.428a2.121 2.121 0 0 0 3-.001c.828-.828.828-2.171 0-3l-1.428-1.428a2.121 2.121 0 0 0-3 .001L13.571 8.43"/>
    <path fill="none" stroke="#ffffff" stroke-width="2" stroke-linecap="round" stroke-linejoin="round" d="m14 8 2-2c.828-.828 2.171-.828 3 0l1.429 1.429c.828.828.828 2.171 0 3l-2 2"/>
    <path fill="none" stroke="#ffffff" stroke-width="2" stroke-linecap="round" stroke-linejoin="round" d="m9.5 17.5 1.5-1.5"/>
    <path fill="none" stroke="#ffffff" stroke-width="2" stroke-linecap="round" stroke-linejoin="round" d="m12 15 1.5-1.5"/>
  </g>
</svg>
